<svg width="304" height="106" viewBox="0 0 304 106" fill="none" xmlns="http://www.w3.org/2000/svg">
<path d="M55.946 79.03L22.986 36.903C22.0933 35.7357 21.1663 34.4997 20.205 33.195C19.2437 31.8903 18.2823 30.5513 17.321 29.178H17.218L17.424 61.108C17.424 62.962 17.3897 64.7473 17.321 66.464C17.2523 68.1807 17.1493 69.4853 17.012 70.378C18.1107 70.2407 19.484 70.172 21.132 70.172C22.8487 70.1033 24.0503 70.069 24.737 70.069V78H1.253V71.202C2.83233 71.1333 4.137 70.9273 5.167 70.584C6.26567 70.2407 7.08967 69.451 7.639 68.215C8.257 66.979 8.566 64.9877 8.566 62.241L8.36 22.792C8.36 20.938 8.39433 19.1527 8.463 17.436C8.53167 15.7193 8.63467 14.4147 8.772 13.522C7.67333 13.5907 6.26567 13.6593 4.549 13.728C2.901 13.728 1.69933 13.7623 0.944 13.831V5.89999H17.115L48.633 45.658C50.3497 47.8553 51.7573 49.7437 52.856 51.323C54.0233 52.9023 55.019 54.2757 55.843 55.443H55.946V22.792C55.946 20.938 55.9803 19.1527 56.049 17.436C56.1177 15.7193 56.1863 14.4147 56.255 13.522C55.1563 13.5907 53.783 13.6593 52.135 13.728C50.487 13.728 49.2853 13.7623 48.53 13.831V5.89999H72.014V12.698C70.5033 12.7667 69.1987 12.9727 68.1 13.316C67.0013 13.6593 66.143 14.449 65.525 15.685C64.9757 16.8523 64.701 18.8437 64.701 21.659V79.03H55.946Z" fill="url(#paint0_linear)"/>
<path d="M77.6742 71.305C80.4895 71.305 82.2062 70.481 82.8242 68.833C83.4422 67.1163 83.7512 64.8847 83.7512 62.138V45.04C83.7512 43.804 83.7855 42.3963 83.8542 40.817C83.9228 39.169 84.0258 37.5897 84.1632 36.079C83.0645 36.1477 81.7598 36.2163 80.2492 36.285C78.8072 36.285 77.7085 36.3193 76.9532 36.388V28.56C81.6912 28.56 85.3305 28.2167 87.8712 27.53C90.4805 26.8433 92.1285 26.1567 92.8152 25.47H98.3772V61.417C98.3772 62.3783 98.3428 63.7517 98.2742 65.537C98.2055 67.2537 98.1025 68.9017 97.9652 70.481C99.0638 70.3437 100.266 70.275 101.57 70.275C102.944 70.2063 103.974 70.172 104.66 70.172V78H77.6742V71.305ZM90.5492 17.333C88.2145 17.333 86.2918 16.509 84.7812 14.861C83.2705 13.213 82.5152 11.2217 82.5152 8.887C82.5152 6.55233 83.3048 4.56099 84.8842 2.91299C86.4635 1.26499 88.3175 0.440994 90.4462 0.440994C92.6435 0.440994 94.4632 1.26499 95.9052 2.91299C97.4158 4.56099 98.1712 6.55233 98.1712 8.887C98.1712 11.2217 97.4845 13.213 96.1112 14.861C94.7378 16.509 92.8838 17.333 90.5492 17.333Z" fill="url(#paint1_linear)"/>
<path d="M111.37 71.305C114.186 71.305 115.902 70.481 116.52 68.833C117.138 67.1163 117.447 64.8847 117.447 62.138V44.834C117.447 43.598 117.482 42.2247 117.55 40.714C117.619 39.1347 117.722 37.5897 117.859 36.079C116.761 36.1477 115.456 36.2163 113.945 36.285C112.503 36.285 111.405 36.3193 110.649 36.388V28.56H114.769C117.447 28.56 119.885 28.2167 122.082 27.53C124.348 26.8433 125.825 26.1567 126.511 25.47H131.558C131.696 26.1567 131.799 27.4613 131.867 29.384C131.936 31.238 131.97 32.886 131.97 34.328C134.717 30.8947 137.292 28.457 139.695 27.015C142.099 25.573 144.536 24.852 147.008 24.852C149.412 24.852 151.506 25.5387 153.291 26.912C155.077 28.2167 155.969 30.3797 155.969 33.401C155.969 34.431 155.729 35.5297 155.248 36.697C154.768 37.7957 154.012 38.7227 152.982 39.478C151.952 40.2333 150.545 40.611 148.759 40.611C147.386 40.611 145.978 40.199 144.536 39.375C143.094 38.551 142.27 36.9717 142.064 34.637C140.691 34.637 139.318 35.2207 137.944 36.388C136.571 37.4867 135.335 38.8257 134.236 40.405C133.206 41.9157 132.485 43.3233 132.073 44.628V61.417C132.073 62.3783 132.039 63.7517 131.97 65.537C131.902 67.2537 131.799 68.9017 131.661 70.481C132.76 70.3437 133.962 70.275 135.266 70.275C136.64 70.2063 137.67 70.172 138.356 70.172V78H111.37V71.305Z" fill="url(#paint2_linear)"/>
<path d="M158.799 105.913C154.953 105.913 152.138 105.02 150.353 103.235C148.499 101.518 147.572 99.5957 147.572 97.467C147.572 95.6817 148.155 94.068 149.323 92.626C150.421 91.2527 152.001 90.5317 154.061 90.463C155.915 90.3943 157.425 90.9437 158.593 92.111C159.76 93.2783 160.344 94.7547 160.344 96.54C160.344 96.8147 160.309 97.0893 160.241 97.364C160.241 97.6387 160.206 97.9477 160.138 98.291C160.55 98.5657 161.133 98.703 161.889 98.703C163.193 98.703 164.12 98.2567 164.67 97.364C165.288 96.54 165.7 95.51 165.906 94.274C166.112 93.038 166.215 91.9393 166.215 90.978L165.906 45.04C165.906 43.804 165.94 42.3963 166.009 40.817C166.077 39.169 166.18 37.5897 166.318 36.079C165.219 36.1477 163.914 36.2163 162.404 36.285C160.962 36.285 159.863 36.3193 159.108 36.388V28.56C163.914 28.56 167.588 28.2167 170.129 27.53C172.669 26.8433 174.283 26.1567 174.97 25.47H180.532V77.794C180.532 84.1113 179.57 89.3643 177.648 93.553C175.794 97.7417 173.219 100.832 169.923 102.823C166.627 104.883 162.919 105.913 158.799 105.913ZM173.219 17.333C170.884 17.333 168.961 16.509 167.451 14.861C165.94 13.213 165.185 11.2217 165.185 8.887C165.185 6.55233 165.974 4.56099 167.554 2.91299C169.133 1.26499 170.987 0.440994 173.116 0.440994C175.313 0.440994 177.133 1.26499 178.575 2.91299C180.085 4.56099 180.841 6.55233 180.841 8.887C180.841 11.2217 180.154 13.213 178.781 14.861C177.407 16.509 175.553 17.333 173.219 17.333Z" fill="url(#paint3_linear)"/>
<path d="M218.763 78C218.626 77.0387 218.523 76.249 218.454 75.631C218.454 74.9443 218.42 74.1547 218.351 73.262C216.017 75.5967 213.545 77.2447 210.935 78.206C208.326 79.1673 205.682 79.648 203.004 79.648C198.61 79.648 195.176 78.3433 192.704 75.734C190.232 73.1247 188.996 69.863 188.996 65.949C188.996 62.653 189.82 59.8377 191.468 57.503C193.185 55.1683 195.417 53.28 198.163 51.838C200.979 50.3273 204.069 49.1943 207.433 48.439C210.867 47.615 214.3 47.1343 217.733 46.997V41.641C217.733 38.963 217.184 36.697 216.085 34.843C215.055 32.989 213.133 32.1307 210.317 32.268C207.433 32.4053 205.099 33.3667 203.313 35.152C203.863 35.77 204.206 36.4567 204.343 37.212C204.481 37.8987 204.549 38.5167 204.549 39.066C204.549 40.4393 204 41.8813 202.901 43.392C201.803 44.834 200.052 45.5207 197.648 45.452C195.588 45.3833 194.009 44.6623 192.91 43.289C191.812 41.9157 191.262 40.302 191.262 38.448C191.262 35.7013 192.224 33.3323 194.146 31.341C196.138 29.281 198.781 27.7017 202.077 26.603C205.373 25.4357 209.013 24.852 212.995 24.852C219.038 24.852 223.707 26.4313 227.003 29.59C230.368 32.68 232.05 37.6583 232.05 44.525C232.05 46.8597 232.05 48.851 232.05 50.499C232.05 52.147 232.016 53.795 231.947 55.443C231.947 57.091 231.947 59.0823 231.947 61.417C231.947 62.3783 231.913 63.7517 231.844 65.537C231.776 67.2537 231.673 68.9017 231.535 70.481C232.703 70.3437 233.939 70.275 235.243 70.275C236.548 70.2063 237.544 70.172 238.23 70.172V78H218.763ZM217.63 54.31C213.785 54.6533 210.455 55.649 207.639 57.297C204.893 58.945 203.554 61.2453 203.622 64.198C203.691 66.1207 204.309 67.494 205.476 68.318C206.644 69.142 207.983 69.554 209.493 69.554C211.073 69.554 212.549 69.2107 213.922 68.524C215.296 67.8373 216.532 66.9447 217.63 65.846V54.31Z" fill="url(#paint4_linear)"/>
<path d="M244.144 78V71.305C246.959 71.305 248.676 70.481 249.294 68.833C249.912 67.1163 250.221 64.8847 250.221 62.138V44.834C250.221 43.598 250.255 42.2247 250.324 40.714C250.393 39.1347 250.496 37.5897 250.633 36.079C249.534 36.1477 248.23 36.2163 246.719 36.285C245.277 36.285 244.178 36.3193 243.423 36.388V28.56C248.161 28.56 251.8 28.2167 254.341 27.53C256.95 26.8433 258.598 26.1567 259.285 25.47H264.332C264.469 26.3627 264.538 27.015 264.538 27.427C264.538 27.839 264.538 28.251 264.538 28.663C264.607 29.0063 264.744 29.6587 264.95 30.62C266.323 29.5213 267.903 28.56 269.688 27.736C271.473 26.8433 273.259 26.1567 275.044 25.676C276.829 25.1267 278.409 24.852 279.782 24.852C286.099 24.852 290.563 26.6717 293.172 30.311C295.85 33.8817 297.189 39.6497 297.189 47.615V61.417C297.189 62.3783 297.155 63.7517 297.086 65.537C297.017 67.2537 296.914 68.9017 296.777 70.481C297.944 70.3437 299.18 70.275 300.485 70.275C301.79 70.2063 302.785 70.172 303.472 70.172V78H276.486V71.305C279.37 71.305 281.121 70.481 281.739 68.833C282.357 67.1163 282.666 64.8847 282.666 62.138L282.563 47.512C282.563 43.0487 281.911 39.7527 280.606 37.624C279.37 35.4267 277.241 34.328 274.22 34.328C272.503 34.328 270.787 34.7057 269.07 35.461C267.422 36.2163 266.014 37.109 264.847 38.139V61.417C264.847 62.3783 264.813 63.7517 264.744 65.537C264.675 67.2537 264.572 68.9017 264.435 70.481C265.534 70.3437 266.735 70.275 268.04 70.275C269.413 70.2063 270.443 70.172 271.13 70.172V78H244.144Z" fill="url(#paint5_linear)"/>
<defs>
<linearGradient id="paint0_linear" x1="314" y1="40" x2="-3.99999" y2="40" gradientUnits="userSpaceOnUse">
<stop stop-color="#FF00CC"/>
<stop offset="1" stop-color="#E100FF"/>
</linearGradient>
<linearGradient id="paint1_linear" x1="314" y1="40" x2="-3.99999" y2="40" gradientUnits="userSpaceOnUse">
<stop stop-color="#FF00CC"/>
<stop offset="1" stop-color="#E100FF"/>
</linearGradient>
<linearGradient id="paint2_linear" x1="314" y1="40" x2="-3.99999" y2="40" gradientUnits="userSpaceOnUse">
<stop stop-color="#FF00CC"/>
<stop offset="1" stop-color="#E100FF"/>
</linearGradient>
<linearGradient id="paint3_linear" x1="314" y1="40" x2="-3.99999" y2="40" gradientUnits="userSpaceOnUse">
<stop stop-color="#FF00CC"/>
<stop offset="1" stop-color="#E100FF"/>
</linearGradient>
<linearGradient id="paint4_linear" x1="314" y1="40" x2="-3.99999" y2="40" gradientUnits="userSpaceOnUse">
<stop stop-color="#FF00CC"/>
<stop offset="1" stop-color="#E100FF"/>
</linearGradient>
<linearGradient id="paint5_linear" x1="314" y1="40" x2="-3.99999" y2="40" gradientUnits="userSpaceOnUse">
<stop stop-color="#FF00CC"/>
<stop offset="1" stop-color="#E100FF"/>
</linearGradient>
</defs>
</svg>
